Coordinates
version=1
nRows=19
nColumns=33
inDegrees=yes

Units are S.I. units (second, meters, Newtons, ...)
Angles are in degrees.

endheader
time	ground_thorax_rot_x	ground_thorax_rot_y	ground_thorax_rot_z	ground_thorax_tx	ground_thorax_ty	ground_thorax_tz	clav_prot_r	clav_elev_r	scapula_abduction_r	scapula_elevation_r	scapula_upward_rot_r	scapula_winging_r	shoulder_elv_r	plane_of_elev_r	axial_rot_r	elbow_flexion_r	pro_sup_r	wrist_flex_r	wrist_dev_r	clav_prot_l	clav_elev_l	scapula_abduction_l	scapula_elevation_l	scapula_upward_rot_l	scapula_winging_l	shoulder_elv_l	plane_of_elev_l	axial_rot_l	elbow_flexion_l	pro_sup_l	wrist_flex_l	wrist_dev_l	
2.5400	42.087862	-3.252048	-3.477546	-31.385551	790.620196	2.916221	13.031105	44.681174	45.000000	45.000000	-13.302518	-4038.582176	-1911.858693	144.590728	180.000000	1086.930534	32.258557	16.846046	13.818296	4.362298	-45.000000	-45.000000	45.000000	-3.127606	801.037509	-2616.704701	131.853221	-145.370759	360.825041	-321.833464	11.435068	-20.265602	
2.5500	42.037112	-3.420155	-3.450005	-32.809453	791.300913	2.977590	12.918942	44.601237	45.000000	45.000000	-13.361551	-4038.777300	-1911.626462	144.603891	180.000000	1087.298895	32.236905	17.082333	13.682098	4.237514	-45.000000	-45.000000	45.000000	-2.839355	801.353274	-2616.662316	131.918637	-145.858442	361.144521	-322.071939	11.383322	-20.433796	
2.5600	41.982814	-3.573933	-3.399754	-34.342732	791.985593	3.033813	12.821999	44.525649	45.000000	45.000000	-13.456297	-4038.966067	-1911.380925	144.616947	180.000000	1087.663813	32.213874	17.328575	13.536978	4.124555	-45.000000	-45.000000	45.000000	-2.578818	801.675377	-2616.614123	132.001956	-146.391231	361.463992	-322.332794	11.323126	-20.595662	
2.5700	41.923656	-3.657826	-3.281467	-36.111116	792.669519	3.081451	12.779410	44.458451	44.999999	45.000000	-13.682636	-4039.163752	-1911.110247	144.623249	180.000000	1088.020048	32.187137	17.550663	13.382508	4.043775	-45.000000	-45.000000	45.000000	-2.417433	802.024515	-2616.550325	132.088903	-147.006698	361.772846	-322.634297	11.278857	-20.747889	
2.5800	41.857176	-3.686852	-3.106943	-38.135929	793.362556	3.119031	12.777024	44.397208	44.999999	45.000000	-14.016373	-4039.365600	-1910.816045	144.629607	180.000000	1088.365810	32.162261	17.765313	13.214842	3.989177	-45.000000	-44.999999	45.000000	-2.334283	802.397672	-2616.477986	132.192836	-147.716863	362.082313	-322.984422	11.237710	-20.890925	
2.5900	41.782382	-3.668841	-2.882037	-40.455975	794.073105	3.145377	12.809680	44.321092	44.999998	45.000000	-14.452165	-4039.577550	-1910.507297	144.631977	180.000000	1088.699863	32.144486	17.978798	13.032932	3.958589	-45.000000	-44.999999	45.000000	-2.323938	802.807601	-2616.401896	132.313418	-148.531414	362.392690	-323.389402	11.198603	-21.026588	
2.6000	41.697999	-3.608014	-2.615969	-43.083102	794.811858	3.160721	12.866506	44.230158	44.999997	45.000000	-14.985752	-4039.798306	-1910.185727	144.634408	180.000000	1089.018358	32.140605	18.196075	12.834857	3.948403	-45.000000	-44.999998	45.000000	-2.378473	803.251371	-2616.326124	132.454541	-149.453396	362.708264	-323.851802	11.154893	-21.154249	
2.6100	41.603034	-3.515302	-2.318922	-46.016654	795.588406	3.166420	12.937140	44.103910	44.999994	45.000000	-15.615277	-4040.032502	-1909.857769	144.628489	180.000000	1089.321669	32.152851	18.422692	12.618806	3.954833	-45.000000	-44.999997	45.000000	-2.484992	803.734707	-2616.254160	132.611765	-150.475914	363.025352	-324.369721	11.103983	-21.275170	
2.6200	41.496839	-3.384735	-1.984343	-49.256076	796.409017	3.164693	13.022826	43.950497	44.999990	45.000000	-16.357767	-4040.277911	-1909.519607	144.614896	180.000000	1089.611855	32.177640	18.652232	12.383173	3.980350	-45.000000	-44.999994	45.000000	-2.651858	804.253186	-2616.183375	132.784633	-151.585939	363.342180	-324.942058	11.045029	-21.387426	
2.6300	41.379467	-3.215873	-1.609274	-52.798412	797.276759	3.157994	13.129126	43.764634	44.999982	45.000000	-17.230478	-4040.535458	-1909.169940	144.586155	180.000000	1089.890640	32.205176	18.879736	12.127231	4.029559	-45.000000	-44.999989	45.000000	-2.887047	804.805764	-2616.108903	132.967633	-152.758221	363.646566	-325.567031	10.979694	-21.488722	
2.6400	41.251971	-3.000560	-1.184258	-56.637825	798.192146	3.148738	13.269544	43.569619	44.999967	45.000000	-18.243913	-4040.794674	-1908.801296	144.555437	180.000000	1090.166317	32.224230	19.097489	11.854164	4.110821	-45.000000	-44.999981	45.000000	-3.215655	805.382552	-2616.023752	133.161482	-153.964463	363.940128	-326.246450	10.908301	-21.576495	
2.6500	41.115075	-2.744610	-0.715279	-60.763490	799.153134	3.138891	13.446872	43.365540	44.999941	45.000000	-19.395255	-4041.055655	-1908.413718	144.521181	180.000000	1090.436374	32.226293	19.300438	11.568391	4.227801	-45.000000	-44.999966	45.000000	-3.642669	805.978875	-2615.922743	133.356691	-155.167053	364.217069	-326.980063	10.834947	-21.651305	
2.6600	40.976041	-2.453225	-0.205498	-65.159530	800.155461	3.129819	13.689185	43.166540	44.999895	45.000000	-20.651240	-4041.309510	-1908.010390	144.506922	180.000000	1090.713193	32.210842	19.485221	11.287237	4.397681	-45.000000	-44.999939	45.000000	-4.215106	806.589647	-2615.794760	133.537731	-156.333860	364.486145	-327.773243	10.765856	-21.713538	
2.6700	40.834811	-2.136874	0.331261	-69.804328	801.192670	3.122293	13.988273	42.967439	44.999812	45.000000	-21.983447	-4041.560440	-1907.603814	144.507527	180.000000	1090.980745	32.189939	19.649128	11.018803	4.622797	-45.000000	-44.999891	45.000000	-4.935637	807.210682	-2615.633453	133.693919	-157.418391	364.739295	-328.627644	10.707424	-21.764481	
2.6800	40.692735	-1.781320	0.900050	-74.672988	802.256883	3.116959	14.377582	42.773651	44.999664	45.000000	-23.373602	-4041.807932	-1907.208054	144.534571	180.000000	1091.229392	32.188080	19.786533	10.775698	4.929313	-45.000000	-44.999805	45.000000	-5.833442	807.837031	-2615.436725	133.821361	-158.419631	364.976849	-329.552251	10.667224	-21.801217	
2.6900	40.544123	-1.387252	1.494141	-79.737947	803.339100	3.114907	14.815087	42.569737	44.999398	45.000000	-24.813646	-4042.066886	-1906.838471	144.564885	180.000000	1091.432730	32.232716	19.894783	10.544705	5.294657	-45.000000	-44.999650	45.000000	-6.849352	808.467852	-2615.222208	133.931212	-159.334471	365.186239	-330.541249	10.646686	-21.826768	
2.7000	40.391529	-0.948609	2.114771	-84.971074	804.429807	3.118156	15.287665	42.352729	44.998921	45.000000	-26.303047	-4042.337391	-1906.497344	144.601838	180.000000	1091.598264	32.349648	19.974113	10.315960	5.708236	-45.000000	-44.999373	45.000000	-7.971506	809.103083	-2615.005543	134.030841	-160.190421	365.364242	-331.585803	10.643512	-21.842906	
2.7100	40.229515	-0.487503	2.740554	-90.343560	805.518945	3.129774	15.715108	42.108410	44.998067	45.000000	-27.827055	-4042.624855	-1906.188669	144.624410	180.000000	1091.719415	32.559402	20.028800	10.070329	6.116873	-45.000000	-44.998878	45.000000	-9.110065	809.746580	-2614.807134	134.135058	-160.987176	365.504735	-332.653522	10.652690	-21.859141	
2.7200	40.061946	-0.009391	3.359945	-95.827060	806.596093	3.153433	16.096689	41.842647	44.996538	45.000000	-29.379668	-4042.920057	-1905.905557	144.643374	180.000000	1091.811683	32.879567	20.059889	9.804432	6.512433	-45.000000	-44.997989	45.000000	-10.251709	810.394848	-2614.633599	134.246270	-161.744043	365.611338	-333.712215	10.671498	-21.879143	
